<?xml version="1.0" encoding="UTF-8" standalone="no"?>
<svg
   xmlns:dc="http://purl.org/dc/elements/1.1/"
   xmlns:cc="http://creativecommons.org/ns#"
   xmlns:rdf="http://www.w3.org/1999/02/22-rdf-syntax-ns#"
   xmlns:svg="http://www.w3.org/2000/svg"
   xmlns="http://www.w3.org/2000/svg"
   xmlns:sodipodi="http://sodipodi.sourceforge.net/DTD/sodipodi-0.dtd"
   xmlns:inkscape="http://www.inkscape.org/namespaces/inkscape"
   version="1.1"
   id="svg2"
   xml:space="preserve"
   width="266.66666"
   height="266.66666"
   viewBox="0 0 266.66666 266.66666"
   sodipodi:docname="2220.svg"
   inkscape:version="1.0.1 (3bc2e813f5, 2020-09-07)"><metadata
     id="metadata8"><rdf:RDF><cc:Work
         rdf:about=""><dc:format>image/svg+xml</dc:format><dc:type
           rdf:resource="http://purl.org/dc/dcmitype/StillImage" /><dc:title></dc:title></cc:Work></rdf:RDF></metadata><defs
     id="defs6"><clipPath
       clipPathUnits="userSpaceOnUse"
       id="clipPath20"><path
         d="M 2000,0 H 0 V 2000 H 2000 V 0 m -43.69,50.4414 v 0 c 1.07,11.7969 2.15,23.5195 3.22,35.0977 1.19,13.6718 2.36,27.1799 3.67,40.4489 5.9,65.582 11.51,127.614 16.8,186.563 v 0 c -72.1,6.129 -149.18,9.687 -233.1,9.687 -71.78,0 -148.55,-2.609 -231.51,-8.437 -150.41,-10.629 -320.28,-31.43 -522.327,-70.481 -192.067,39.051 -353.555,59.852 -496.559,70.481 -78.891,5.828 -151.883,8.437 -220.117,8.437 -79.782,0 -153.067,-3.558 -221.6409,-9.687 5.0586,-58.949 10.4297,-120.981 16.0547,-186.563 1.1719,-13.269 2.3047,-26.7771 3.4961,-40.4489 1.0156,-11.5782 1.9726,-23.3008 3.0078,-35.0977 v 0 C 193.945,86.4609 327.852,116.77 490.527,138.469 c 140.465,18.621 302.493,31.429 502.543,33.672 210.43,-2.243 380.85,-15.051 528.59,-33.672 171.15,-21.699 311.99,-52.0081 434.65,-88.0276 m 0,616.6606 v 0 c 1.07,11.796 2.15,23.519 3.22,35.097 1.19,13.672 2.36,27.18 3.67,40.449 5.9,65.582 11.51,127.614 16.8,186.563 v 0 c -72.1,6.129 -149.19,9.687 -233.11,9.687 -71.77,0 -148.54,-2.609 -231.5,-8.437 -150.41,-10.629 -320.28,-31.43 -522.327,-70.481 -192.067,39.051 -353.555,59.852 -496.559,70.481 -78.891,5.828 -151.875,8.437 -220.113,8.437 -79.782,0 -153.071,-3.558 -221.6449,-9.687 5.0586,-58.949 10.4297,-120.981 16.0547,-186.563 1.1719,-13.269 2.3047,-26.777 3.4961,-40.449 1.0156,-11.578 1.9726,-23.301 3.0078,-35.097 v 0 c 116.6403,36.019 250.5473,66.328 413.2223,88.027 140.453,18.621 302.512,31.43 502.543,33.672 210.41,-2.242 380.86,-15.051 528.59,-33.672 171.15,-21.699 311.99,-52.008 434.65,-88.027 m 0,616.678 v 0 c 1.07,11.79 2.15,23.52 3.22,35.1 1.19,13.67 2.36,27.18 3.67,40.44 5.9,65.59 11.51,127.62 16.8,186.57 v 0 c -72.1,6.13 -149.19,9.69 -233.11,9.69 -71.77,0 -148.54,-2.61 -231.5,-8.44 -150.41,-10.64 -320.28,-31.43 -522.327,-70.48 -192.067,39.05 -353.555,59.84 -496.559,70.48 -78.891,5.83 -151.879,8.44 -220.113,8.44 -79.786,0 -153.071,-3.56 -221.6449,-9.69 5.0586,-58.95 10.4297,-120.98 16.0547,-186.57 1.1719,-13.26 2.3047,-26.77 3.4961,-40.44 1.0156,-11.58 1.9726,-23.31 3.0078,-35.1 v 0 c 116.6403,36.02 250.5473,66.33 413.2223,88.02 140.453,18.63 302.512,31.44 502.543,33.68 210.41,-2.24 380.86,-15.05 528.59,-33.68 171.15,-21.69 311.99,-52 434.65,-88.02"
         id="path18" /></clipPath><radialGradient
       fx="0"
       fy="0"
       cx="0"
       cy="0"
       r="1"
       gradientUnits="userSpaceOnUse"
       gradientTransform="matrix(2993.33,0,0,-2993.33,1000,1000)"
       spreadMethod="pad"
       id="radialGradient26"><stop
         style="stop-opacity:1;stop-color:#f6f6f6"
         offset="0"
         id="stop22" /><stop
         style="stop-opacity:1;stop-color:#100f0d"
         offset="1"
         id="stop24" /></radialGradient><clipPath
       clipPathUnits="userSpaceOnUse"
       id="clipPath36"><path
         d="m 77.3047,1283.78 v 0 c -1.0352,11.79 -1.9922,23.52 -3.0078,35.1 -1.1914,13.67 -2.3242,27.18 -3.4961,40.44 -5.625,65.59 -10.9961,127.62 -16.0547,186.57 68.5739,6.13 141.8589,9.69 221.6449,9.69 68.234,0 141.222,-2.61 220.113,-8.44 143.004,-10.64 304.492,-31.43 496.559,-70.48 -41.395,-8 -84.149,-16.77 -128.356,-26.38 4.746,-10.78 9.375,-21.62 14.102,-32.36 0.976,-2.22 1.953,-4.45 2.851,-6.62 0.86,-1.91 1.699,-3.73 2.5,-5.61 14.235,0.1 28.301,0.14 42.192,0.14 22.687,0 44.91,-0.12 66.718,-0.35 -200.031,-2.24 -362.09,-15.05 -502.543,-33.68 -162.675,-21.69 -296.582,-52 -413.2223,-88.02"
         id="path34" /></clipPath><clipPath
       clipPathUnits="userSpaceOnUse"
       id="clipPath48"><path
         d="m 1956.31,1283.78 v 0 c -122.66,36.02 -263.5,66.33 -434.65,88.02 -147.73,18.63 -318.18,31.44 -528.59,33.68 20.73,0.23 41.86,0.35 63.42,0.35 13.21,0 26.58,-0.04 40.11,-0.14 0.7,1.88 1.51,3.7 2.36,5.61 0.86,2.17 1.8,4.4 2.66,6.62 4.51,10.74 8.95,21.58 13.46,32.36 v 0 c -42.02,9.61 -82.66,18.38 -122.017,26.38 202.047,39.05 371.917,59.84 522.327,70.48 82.96,5.83 159.73,8.44 231.5,8.44 83.92,0 161.01,-3.56 233.11,-9.69 v 0 c -5.29,-58.95 -10.9,-120.98 -16.8,-186.57 -1.31,-13.26 -2.48,-26.77 -3.67,-40.44 -1.07,-11.58 -2.15,-23.31 -3.22,-35.1"
         id="path46" /></clipPath><clipPath
       clipPathUnits="userSpaceOnUse"
       id="clipPath60"><path
         d="m 993.07,1405.48 c -21.808,0.23 -44.031,0.35 -66.718,0.35 -13.891,0 -27.957,-0.04 -42.192,-0.14 -0.801,1.88 -1.64,3.7 -2.5,5.61 -0.898,2.17 -1.875,4.4 -2.851,6.62 -4.727,10.74 -9.356,21.58 -14.102,32.36 44.207,9.61 86.961,18.38 128.356,26.38 39.357,-8 79.997,-16.77 122.017,-26.38 v 0 c -4.51,-10.78 -8.95,-21.62 -13.46,-32.36 -0.86,-2.22 -1.8,-4.45 -2.66,-6.62 -0.85,-1.91 -1.66,-3.73 -2.36,-5.61 -13.53,0.1 -26.9,0.14 -40.11,0.14 -21.56,0 -42.69,-0.12 -63.42,-0.35"
         id="path58" /></clipPath><clipPath
       clipPathUnits="userSpaceOnUse"
       id="clipPath72"><path
         d="M 127.848,1427.27 H 1844.88 v 415.61 H 127.848 Z"
         id="path70" /></clipPath><radialGradient
       fx="0"
       fy="0"
       cx="0"
       cy="0"
       r="1"
       gradientUnits="userSpaceOnUse"
       gradientTransform="matrix(-2119.36,1e-7,-1e-7,-2119.36,989.697,1641.74)"
       spreadMethod="pad"
       id="radialGradient78"><stop
         style="stop-opacity:1;stop-color:#f6f6f6"
         offset="0"
         id="stop74" /><stop
         style="stop-opacity:1;stop-color:#100f0d"
         offset="1"
         id="stop76" /></radialGradient><clipPath
       clipPathUnits="userSpaceOnUse"
       id="clipPath88"><path
         d="m 77.3047,667.102 v 0 c -1.0352,11.796 -1.9922,23.519 -3.0078,35.097 -1.1914,13.672 -2.3242,27.18 -3.4961,40.449 -5.625,65.582 -10.9961,127.614 -16.0547,186.563 68.5739,6.129 141.8629,9.687 221.6449,9.687 68.238,0 141.222,-2.609 220.113,-8.437 143.004,-10.629 304.492,-31.43 496.559,-70.481 -41.395,-8 -84.149,-16.769 -128.356,-26.378 4.746,-10.782 9.375,-21.622 14.102,-32.364 0.976,-2.226 1.953,-4.449 2.851,-6.617 0.86,-1.91 1.699,-3.73 2.5,-5.609 14.235,0.09 28.301,0.136 42.192,0.136 22.687,0 44.91,-0.117 66.718,-0.347 C 793.039,786.559 630.98,773.75 490.527,755.129 327.852,733.43 193.945,703.121 77.3047,667.102"
         id="path86" /></clipPath><clipPath
       clipPathUnits="userSpaceOnUse"
       id="clipPath100"><path
         d="m 1956.31,667.102 v 0 c -122.66,36.019 -263.5,66.328 -434.65,88.027 -147.73,18.621 -318.18,31.43 -528.59,33.672 20.73,0.23 41.86,0.347 63.42,0.347 13.21,0 26.58,-0.046 40.11,-0.136 0.7,1.879 1.51,3.699 2.36,5.609 0.86,2.168 1.8,4.391 2.66,6.617 4.51,10.742 8.95,21.582 13.46,32.364 v 0 c -42.02,9.609 -82.66,18.378 -122.017,26.378 202.047,39.051 371.917,59.852 522.327,70.481 82.96,5.828 159.73,8.437 231.5,8.437 83.92,0 161.01,-3.558 233.11,-9.687 v 0 c -5.29,-58.949 -10.9,-120.981 -16.8,-186.563 -1.31,-13.269 -2.48,-26.777 -3.67,-40.449 -1.07,-11.578 -2.15,-23.301 -3.22,-35.097"
         id="path98" /></clipPath><clipPath
       clipPathUnits="userSpaceOnUse"
       id="clipPath112"><path
         d="m 993.07,788.801 c -21.808,0.23 -44.031,0.347 -66.718,0.347 -13.891,0 -27.957,-0.046 -42.192,-0.136 -0.801,1.879 -1.64,3.699 -2.5,5.609 -0.898,2.168 -1.875,4.391 -2.851,6.617 -4.727,10.742 -9.356,21.582 -14.102,32.364 44.207,9.609 86.961,18.378 128.356,26.378 39.357,-8 79.997,-16.769 122.017,-26.378 v 0 c -4.51,-10.782 -8.95,-21.622 -13.46,-32.364 -0.86,-2.226 -1.8,-4.449 -2.66,-6.617 -0.85,-1.91 -1.66,-3.73 -2.36,-5.609 -13.53,0.09 -26.9,0.136 -40.11,0.136 -21.56,0 -42.69,-0.117 -63.42,-0.347"
         id="path110" /></clipPath><clipPath
       clipPathUnits="userSpaceOnUse"
       id="clipPath124"><path
         d="M 127.848,810.602 H 1844.88 V 1226.21 H 127.848 Z"
         id="path122" /></clipPath><radialGradient
       fx="0"
       fy="0"
       cx="0"
       cy="0"
       r="1"
       gradientUnits="userSpaceOnUse"
       gradientTransform="matrix(-2119.36,1e-7,-1e-7,-2119.36,989.697,1025.07)"
       spreadMethod="pad"
       id="radialGradient130"><stop
         style="stop-opacity:1;stop-color:#f6f6f6"
         offset="0"
         id="stop126" /><stop
         style="stop-opacity:1;stop-color:#100f0d"
         offset="1"
         id="stop128" /></radialGradient><clipPath
       clipPathUnits="userSpaceOnUse"
       id="clipPath140"><path
         d="m 77.3047,50.4414 v 0 c -1.0352,11.7969 -1.9922,23.5195 -3.0078,35.0977 -1.1914,13.6718 -2.3242,27.1799 -3.4961,40.4489 -5.625,65.582 -10.9961,127.614 -16.0547,186.563 68.5739,6.129 141.8589,9.687 221.6409,9.687 68.234,0 141.226,-2.609 220.117,-8.437 143.004,-10.629 304.492,-31.43 496.559,-70.481 -41.395,-8 -84.149,-16.769 -128.356,-26.379 4.746,-10.781 9.375,-21.621 14.102,-32.363 0.976,-2.226 1.953,-4.449 2.851,-6.617 0.86,-1.922 1.699,-3.731 2.5,-5.609 14.219,0.089 28.301,0.136 42.18,0.136 22.687,0 44.922,-0.117 66.73,-0.347 C 793.02,169.898 630.992,157.09 490.527,138.469 327.852,116.77 193.945,86.4609 77.3047,50.4414"
         id="path138" /></clipPath><clipPath
       clipPathUnits="userSpaceOnUse"
       id="clipPath152"><path
         d="m 1956.31,50.4414 v 0 c -122.66,36.0195 -263.5,66.3286 -434.65,88.0276 -147.74,18.621 -318.16,31.429 -528.59,33.672 20.73,0.23 41.87,0.347 63.44,0.347 13.19,0 26.58,-0.047 40.09,-0.136 0.7,1.878 1.51,3.687 2.36,5.609 0.86,2.168 1.8,4.391 2.66,6.617 4.51,10.742 8.95,21.582 13.46,32.363 v 0 c -42.02,9.61 -82.66,18.379 -122.017,26.379 202.047,39.051 371.917,59.852 522.327,70.481 82.96,5.828 159.73,8.437 231.51,8.437 83.92,0 161,-3.558 233.1,-9.687 v 0 c -5.29,-58.949 -10.9,-120.981 -16.8,-186.563 -1.31,-13.269 -2.48,-26.7771 -3.67,-40.4489 -1.07,-11.5782 -2.15,-23.3008 -3.22,-35.0977"
         id="path150" /></clipPath><clipPath
       clipPathUnits="userSpaceOnUse"
       id="clipPath164"><path
         d="m 993.07,172.141 c -21.808,0.23 -44.043,0.347 -66.73,0.347 -13.879,0 -27.961,-0.047 -42.18,-0.136 -0.801,1.878 -1.64,3.687 -2.5,5.609 -0.898,2.168 -1.875,4.391 -2.851,6.617 -4.727,10.742 -9.356,21.582 -14.102,32.363 44.207,9.61 86.961,18.379 128.356,26.379 39.357,-8 79.997,-16.769 122.017,-26.379 v 0 c -4.51,-10.781 -8.95,-21.621 -13.46,-32.363 -0.86,-2.226 -1.8,-4.449 -2.66,-6.617 -0.85,-1.922 -1.66,-3.731 -2.36,-5.609 -13.51,0.089 -26.9,0.136 -40.09,0.136 -21.57,0 -42.71,-0.117 -63.44,-0.347"
         id="path162" /></clipPath><clipPath
       clipPathUnits="userSpaceOnUse"
       id="clipPath176"><path
         d="M 127.848,192.59 H 1844.88 V 608.191 H 127.848 Z"
         id="path174" /></clipPath><radialGradient
       fx="0"
       fy="0"
       cx="0"
       cy="0"
       r="1"
       gradientUnits="userSpaceOnUse"
       gradientTransform="matrix(-2119.36,1e-7,-1e-7,-2119.36,989.697,407.05)"
       spreadMethod="pad"
       id="radialGradient182"><stop
         style="stop-opacity:1;stop-color:#f6f6f6"
         offset="0"
         id="stop178" /><stop
         style="stop-opacity:1;stop-color:#100f0d"
         offset="1"
         id="stop180" /></radialGradient></defs><sodipodi:namedview
     pagecolor="#ffffff"
     bordercolor="#666666"
     borderopacity="1"
     objecttolerance="10"
     gridtolerance="10"
     guidetolerance="10"
     inkscape:pageopacity="0"
     inkscape:pageshadow="2"
     inkscape:window-width="1920"
     inkscape:window-height="1021"
     id="namedview4"
     showgrid="false"
     inkscape:zoom="4.4494696"
     inkscape:cx="127.92872"
     inkscape:cy="182.36118"
     inkscape:window-x="0"
     inkscape:window-y="31"
     inkscape:window-maximized="1"
     inkscape:current-layer="g12" /><g
     id="g10"
     inkscape:groupmode="layer"
     inkscape:label="ink_ext_XXXXXX"
     transform="matrix(1.3333333,0,0,-1.3333333,0,266.66667)"><g
       id="g12"
       transform="scale(0.1)"><g
         id="g66"><g
           id="g68"
           clip-path="url(#clipPath72)"><path
             d="M 127.848,1427.27 H 1844.88 v 415.61 H 127.848 v -415.61"
             style="fill:url(#radialGradient78);fill-opacity:1;fill-rule:nonzero;stroke:none"
             id="path80" /></g></g><g
         id="g118"><g
           id="g120"
           clip-path="url(#clipPath124)"><path
             d="M 127.848,810.602 H 1844.88 V 1226.21 H 127.848 V 810.602"
             style="fill:url(#radialGradient130);fill-opacity:1;fill-rule:nonzero;stroke:none"
             id="path132" /></g></g><g
         id="g170"><g
           id="g172"
           clip-path="url(#clipPath176)"><path
             d="M 127.848,192.59 H 1844.88 V 608.191 H 127.848 V 192.59"
             style="fill:url(#radialGradient182);fill-opacity:1;fill-rule:nonzero;stroke:none"
             id="path184" /></g></g><path
         d="m 1349.71,411.172 c -1.51,0.137 -2.64,0.566 -3.89,0.566 -1.72,0 -2.85,-0.566 -3.52,-0.726 -0.97,-0.602 -0.97,-1.223 -0.97,-1.942 l 0.29,-1.211 2.25,-0.898 2.85,-1.031 2.38,-0.758 1.35,-1.621 c 0.66,-0.762 0.66,-1.231 0.53,-2.41 0.13,-1.192 -0.53,-2.692 -1.88,-3.262 -1.13,-1.367 -2.75,-1.52 -5,-1.66 -1.87,0.14 -3.81,0.429 -5.23,0.761 l 0.58,2.071 c 1.21,-0.742 2.78,-0.742 4.65,-0.742 1.1,-0.289 2.62,0 3.38,0.441 l 1.33,2.102 -0.84,1.937 c -0.29,0.301 -1.62,0.762 -3.07,1.633 -1.33,0 -2.44,0.316 -2.83,0.609 l -1.78,0.598 -0.84,1.332 -0.72,2.109 c 0,1.34 0.72,2.668 1.93,3.282 1.41,0.898 2.91,1.187 5.16,1.328 1.25,0 2.99,-0.141 3.89,-0.559 v -1.949"
         style="fill:#2e2d2d;fill-opacity:1;fill-rule:nonzero;stroke:none"
         id="path186" /><path
         d="m 1368.96,401.59 -0.42,3.012 c -1.88,-0.18 -3.81,-0.18 -4.34,-0.481 -1.13,0 -1.64,-0.57 -2.46,-1.031 l -0.84,-1.949 0.84,-2.09 c 0.82,-0.301 1.03,-0.742 2.01,-0.742 0.68,0 1.56,0.441 2.75,1.171 0.98,0.469 1.96,1.079 2.46,2.11 m 2.62,-4.942 h -2.62 c -0.29,0.614 -0.29,1.661 -0.29,2.832 -1.19,-2.218 -3.26,-2.832 -5.9,-3.121 -1.03,0.289 -2.16,0.289 -2.97,1.52 -0.84,0.57 -1.38,1.601 -1.38,2.973 l 0.54,2.238 1.33,1.648 2.27,0.891 c 0.88,0.59 1.87,0.59 3.49,0.43 l 2.91,0.769 -0.29,0.442 c 0.29,2.699 -1.5,4.32 -3.94,4.32 l -2.17,-0.418 c -1.43,0 -2.27,-0.762 -2.48,-1.203 l -0.9,1.929 c 1.95,1.352 4.18,1.782 6.23,1.782 4.02,0 5.9,-1.942 5.9,-5.961 l 0.19,-7.34 c 0,-1.629 -0.19,-2.359 0.08,-3.731"
         style="fill:#2e2d2d;fill-opacity:1;fill-rule:nonzero;stroke:none"
         id="path188" /><path
         d="m 1392.5,396.648 h -2.75 v 10.922 c 0,2.84 -0.37,4.168 -1,4.02 -0.96,0.148 -1.62,-0.418 -1.78,-1.18 -0.82,-1.039 -1.48,-1.34 -1.11,-1.34 v -12.422 h -2.46 l -0.24,11.071 c 0.24,2.691 -0.45,4.019 -1.27,4.019 -0.97,0 -1.26,-0.429 -1.93,-1.769 l -0.68,-0.899 v -12.422 h -2.76 v 16.891 h 2.46 v -2.367 c 0.45,1.039 0.98,1.469 1.94,2.078 0.97,0.289 1.13,0.43 1.79,0.43 l 1.82,-0.43 c 0.57,-0.609 0.96,-1.039 0.96,-2.078 0.66,1.039 0.9,1.469 1.8,1.949 l 2.09,0.559 c 2.14,0 3.12,-1.469 3.12,-5.352 v -11.68"
         style="fill:#2e2d2d;fill-opacity:1;fill-rule:nonzero;stroke:none"
         id="path190" /><path
         d="m 1400.35,409.07 0.08,-7.031 c 0.59,-0.898 1.11,-1.801 2.09,-2.559 0.66,-0.73 1.19,-1.171 2.3,-0.73 1.43,0 3.07,0.301 3.15,1.629 0.76,1.371 1.27,3.172 1.27,4.793 0,2.098 -0.29,3.726 -1.27,4.617 -0.39,1.52 -1.72,1.949 -3.28,1.949 -1.51,0 -3.15,-0.566 -4.34,-2.668 m 0,2.239 2.17,1.941 c 0.98,0.43 2.17,0.762 3.12,0.43 2.25,0 3.6,-0.559 4.71,-1.942 1.35,-1.949 1.66,-3.41 1.66,-6.566 0.06,-2.383 -0.68,-4.32 -1.81,-6.422 -0.96,-1.488 -2.31,-2.102 -4.56,-2.238 -0.95,0.136 -2.14,0.136 -3.12,0.75 -0.98,0.617 -1.5,1.047 -2.09,1.789 l 0.29,-8.821 h -2.77 l 0.31,23.309 h 2.17 l -0.08,-2.23"
         style="fill:#2e2d2d;fill-opacity:1;fill-rule:nonzero;stroke:none"
         id="path192" /><path
         d="m 1429.71,396.98 -7.25,0.141 -0.27,20.457 h -4.14 v 1.942 h 7.11 v -20.309 l 4.55,-0.461 v -1.77"
         style="fill:#2e2d2d;fill-opacity:1;fill-rule:nonzero;stroke:none"
         id="path194" /><path
         d="m 1447.87,407.27 c 0.27,1.351 0,2.519 -1.15,3.57 -0.67,0.75 -1.47,1.058 -2.6,1.058 -1.11,0.313 -2.4,-0.16 -2.97,-1.058 -1.13,-1.051 -1.44,-2.219 -1.66,-3.57 z m 2.89,-2.098 h -11.27 c 0,-1.621 0.22,-3.133 1.66,-4.793 0.86,-0.899 2.44,-1.629 4.1,-2.07 1.33,0.742 2.97,0.742 4.63,1.171 l 0.59,-1.601 c -1.35,-0.899 -3.28,-1.367 -5.51,-1.367 -2.48,0.136 -4.65,0.75 -6.07,2.238 -1.35,1.629 -2.15,4.039 -2.15,6.422 0.27,2.687 0.51,4.797 2.15,6.566 0.82,1.801 3.12,2.102 5.39,2.274 1.77,0 3.59,-0.473 4.84,-1.801 0.76,-1.371 1.88,-3.883 1.64,-6.152 v -0.887"
         style="fill:#2e2d2d;fill-opacity:1;fill-rule:nonzero;stroke:none"
         id="path196" /><path
         d="m 1490.04,397.879 c -1.39,-0.617 -3.05,-1.231 -4.98,-1.231 -2.85,0 -4.26,1.801 -4.42,4.493 l 0.16,10.597 h -3.36 v 1.942 h 3.36 v 4.492 h 2.38 l -0.27,-4.492 h 6.04 l -0.3,-1.942 h -5.47 l 0.08,-9.699 0.69,-2.09 1.71,-1.199 c 1.64,0 2.76,0.73 3.81,0.898 l 0.57,-1.769"
         style="fill:#2e2d2d;fill-opacity:1;fill-rule:nonzero;stroke:none"
         id="path198" /><path
         d="m 1507.62,407.57 c 0,1.5 -0.32,2.219 -1.35,3.602 -0.9,0.566 -1.62,1.039 -2.77,1.18 -1.41,-0.141 -2.46,-0.614 -2.97,-1.18 -0.9,-1.383 -1.43,-2.102 -1.64,-3.453 z m 2.46,-1.941 h -11.53 c 0,-1.789 0.84,-3.309 1.98,-4.777 1.03,-1.372 2.46,-2.102 4.18,-2.102 1.13,0 2.91,0.301 4.57,1.199 l 0.56,-1.929 c -1.38,-1.04 -3.34,-1.372 -5.5,-1.372 -2.25,0 -4.4,1.231 -5.79,2.403 -1.62,1.801 -2.42,3.738 -2.42,6.578 0.14,2.699 1.04,4.781 1.8,6.269 1.46,1.641 3.63,2.543 5.57,2.543 1.87,0 3.3,-0.761 4.96,-2.089 1.09,-1.34 1.62,-3.454 1.62,-6.133 v -0.59"
         style="fill:#2e2d2d;fill-opacity:1;fill-rule:nonzero;stroke:none"
         id="path200" /><path
         d="m 1530.18,397.262 h -2.62 l -4.85,6.718 -4.62,-6.718 h -2.5 l 6.01,8.367 -6.01,8.383 h 2.77 l 4.35,-6.293 4.85,6.293 h 2.62 l -6.06,-8.383 6.06,-8.367"
         style="fill:#2e2d2d;fill-opacity:1;fill-rule:nonzero;stroke:none"
         id="path202" /><path
         d="m 1549.67,398.02 c -1.64,-0.758 -3.42,-1.04 -5.22,-0.899 -2.77,-0.141 -4.12,1.188 -4.12,4.469 l -0.31,10.308 -3.26,0.313 v 1.629 l 3.26,0.172 v 4.769 h 2.48 v -4.48 l 5.76,-0.289 0.28,-1.801 h -6.04 v -9.723 c 0,-1.347 0.29,-2.109 0.9,-2.539 l 1.87,-0.738 c 0.98,-0.16 2.76,0.269 4.11,1.027 l 0.29,-2.218"
         style="fill:#2e2d2d;fill-opacity:1;fill-rule:nonzero;stroke:none"
         id="path204" /><path
         d="m 1589.12,397.879 h -2.64 v 10.449 c 0,1.461 -0.29,2.844 -0.66,3.41 -0.53,0.614 -1.27,0.903 -2.38,0.903 -1.35,0 -2.99,-0.903 -4.92,-2.981 l 0.29,-11.781 h -2.77 v 22.371 l 2.48,0.172 -0.32,-8.832 c 2.25,2.09 3.89,3.32 6.14,3.32 2.98,-0.172 4.86,-1.789 4.86,-5.84 l -0.08,-11.191"
         style="fill:#2e2d2d;fill-opacity:1;fill-rule:nonzero;stroke:none"
         id="path206" /><path
         d="m 1606.66,407.859 c -0.16,1.512 -0.37,2.11 -1.64,3.313 -0.23,1.18 -1.78,1.469 -2.6,1.469 -0.97,0 -2.48,-0.289 -3.01,-1.332 -0.8,-0.899 -1.42,-1.938 -1.5,-3.45 z m 2.93,-1.929 h -11.68 c 0,-1.809 0.08,-3.141 1.88,-4.649 0.76,-1.332 2.1,-1.801 3.45,-1.801 1.55,0 3.6,0.168 5.22,0.758 v -1.929 c -0.96,-0.598 -3.01,-1.047 -4.94,-1.047 -2.91,-0.282 -4.4,0.617 -6.33,2.218 -1.14,1.52 -1.88,3.61 -1.88,6.739 0,2.679 0,4.621 1.88,6.133 1.42,1.66 3.36,2.558 5.23,2.558 1.8,0 3.87,-0.898 4.98,-2.269 1.06,-1.332 2.19,-3.411 2.03,-5.813 l 0.16,-0.898"
         style="fill:#2e2d2d;fill-opacity:1;fill-rule:nonzero;stroke:none"
         id="path208" /><path
         d="m 1628.85,414.012 -1.1,-2.274 -2.48,0.614 c -1.4,0 -1.66,0 -2.38,-0.614 -0.68,-0.429 -1.21,-0.898 -2.19,-1.949 l -0.97,-1.168 0.17,-10.601 h -2.4 v 16.421 l 2.23,-0.14 0.17,-3.129 c 1.62,2.367 2.99,3.738 5.37,3.738 1.04,0 2.48,0 3.58,-0.898"
         style="fill:#2e2d2d;fill-opacity:1;fill-rule:nonzero;stroke:none"
         id="path210" /><path
         d="m 1646.11,408.328 c 0,1.332 -0.29,2.082 -1.03,3.41 -1.27,0.473 -1.95,0.903 -3.07,1.383 -1.27,0 -2.11,-0.769 -3.08,-1.383 -1.04,-0.898 -1.04,-2.078 -1.33,-3.41 z m 2.76,-2.109 -11.27,-0.16 c 0,-1.938 0.29,-3.27 1.33,-4.918 1.15,-0.903 2.53,-1.661 4.2,-1.661 1.34,0 3.28,0.469 4.55,0.899 l 0.68,-2.07 c -1.43,-0.43 -3.28,-1.047 -5.23,-1.047 -2.39,0 -4.58,0.758 -6.2,2.386 -1.21,1.493 -1.79,3.903 -1.79,6.571 0,2.851 0.23,4.793 1.79,6.422 0.96,1.8 2.97,2.41 5.08,2.269 1.94,0 3.81,-0.609 4.71,-2.109 1.64,-1.492 2.15,-3.43 2.15,-5.973 v -0.609"
         style="fill:#2e2d2d;fill-opacity:1;fill-rule:nonzero;stroke:none"
         id="path212" /><path
         d="m 1289.26,470.309 h 9.47 l -14.92,-43.618 h -8.44 l -14.78,43.618 h 9.76 l 9.49,-33.168 9.42,33.168"
         style="fill:#2e2d2d;fill-opacity:1;fill-rule:nonzero;stroke:none"
         id="path214" /><path
         d="m 1308.69,451.051 c -1.27,-1.352 -2.17,-2.981 -2.4,-5.082 h 14.59 c 0,2.242 -0.98,4.043 -2.33,5.082 -1.05,1.34 -2.92,1.789 -4.94,1.789 -2.09,0 -3.73,-0.449 -4.92,-1.789 m 12.62,7.16 c 2.17,-0.879 4.26,-2.383 5.47,-4.629 1.38,-1.773 2.22,-3.883 2.46,-6.711 0.37,-1.652 0.58,-3.75 0.58,-6.269 h -23.53 c 0,-3.461 1.13,-5.821 3.38,-6.891 1.19,-0.91 2.83,-1.039 4.47,-1.039 1.95,0 3.57,0.129 4.86,1.34 l 1.64,2.09 h 8.6 c -0.24,-1.793 -1.21,-3.872 -3.01,-5.821 -2.97,-3.14 -7.07,-4.633 -12.23,-4.633 -4.33,0 -8.06,1.18 -11.44,3.872 -2.99,2.71 -4.86,7.031 -4.86,13.031 0,5.519 1.52,9.988 4.35,12.828 3.07,3.152 6.86,4.48 11.56,4.48 2.99,0 5.55,-0.589 7.7,-1.648"
         style="fill:#2e2d2d;fill-opacity:1;fill-rule:nonzero;stroke:none"
         id="path216" /><path
         d="m 1353.28,447.449 c -0.06,1.051 -0.53,2.25 -1.19,3.141 -0.8,1.371 -2.38,1.949 -4.41,1.949 -2.78,0 -4.77,-1.34 -5.8,-4.039 -0.63,-1.629 -0.92,-3.59 -0.92,-5.949 0,-2.571 0.29,-4.512 0.92,-6 1.03,-2.539 2.83,-3.879 5.6,-3.879 2.15,0 3.5,0.598 4.3,1.637 0.7,1.031 1.13,2.242 1.44,4.203 h 8.73 c -0.21,-2.703 -1.05,-5.102 -2.77,-7.332 -2.83,-3.75 -6.7,-5.532 -11.7,-5.532 -5.25,0 -9.14,1.493 -11.6,4.633 -2.46,2.989 -3.89,7.008 -3.89,11.789 0,5.668 1.51,10.032 4.26,13 2.62,3.141 6.52,4.789 11.23,4.789 4.08,0 7.36,-0.898 9.98,-2.847 2.62,-1.633 3.97,-5.051 4.49,-9.563 h -8.67"
         style="fill:#2e2d2d;fill-opacity:1;fill-rule:nonzero;stroke:none"
         id="path218" /><path
         d="m 1364.43,452.691 v 5.84 h 4.53 v 9.25 h 8.29 v -9.25 h 5.33 v -5.84 h -5.33 v -17.179 c 0,-1.203 0.23,-2.102 0.7,-2.242 0.19,-0.469 1.33,-0.598 2.68,-0.598 h 1.13 0.82 v -6.274 l -4.12,-0.136 c -3.81,0 -6.58,0.429 -8.28,2.066 -0.75,1.051 -1.22,2.543 -1.22,4.473 v 19.89 h -4.53"
         style="fill:#2e2d2d;fill-opacity:1;fill-rule:nonzero;stroke:none"
         id="path220" /><path
         d="m 1408.2,435.34 c 1.25,1.801 2,4.211 2,7.351 0,3.278 -0.75,5.809 -2,7.758 -1.44,1.512 -3.38,2.391 -5.84,2.391 -2.48,0 -4.41,-0.879 -5.58,-2.391 -1.29,-1.949 -1.96,-4.48 -1.96,-7.758 0,-3.14 0.67,-5.55 1.96,-7.351 1.17,-1.789 3.1,-2.668 5.58,-2.668 2.46,0 4.4,0.879 5.84,2.668 m 6.86,-4.629 c -3.05,-3.422 -7.09,-5.063 -12.7,-5.063 -5.52,0 -9.63,1.641 -12.24,5.063 -2.83,3.301 -4.26,7.328 -4.26,11.98 0,4.758 1.43,8.789 4.26,12.239 2.61,3.281 6.72,5.07 12.24,5.07 5.61,0 9.65,-1.789 12.7,-5.07 2.42,-3.45 3.81,-7.481 3.81,-12.239 0,-4.652 -1.39,-8.679 -3.81,-11.98"
         style="fill:#2e2d2d;fill-opacity:1;fill-rule:nonzero;stroke:none"
         id="path222" /><path
         d="m 1442.91,459.859 0.68,-0.14 v -8.668 h -2.3 c -3.52,0 -5.74,-0.891 -7.03,-3.313 -0.59,-1.187 -0.76,-2.976 -0.76,-5.668 v -15.379 h -8.34 v 32.411 h 7.83 v -5.672 c 1.27,2.101 2.56,3.582 3.51,4.34 1.27,1.332 3.52,2.089 6.12,2.089 h 0.29"
         style="fill:#2e2d2d;fill-opacity:1;fill-rule:nonzero;stroke:none"
         id="path224" /><path
         d="m 1489.47,427.879 h -7.18 v 14.672 h -13.36 v -14.672 h -7.17 v 33.5 h 7.17 v -13.02 h 13.36 v 13.02 h 7.18 v -33.5"
         style="fill:#2e2d2d;fill-opacity:1;fill-rule:nonzero;stroke:none"
         id="path226" /><path
         d="m 1512.01,442.551 c 0,2.07 -0.51,3.711 -1.46,4.621 -1,1.039 -2.09,1.469 -3.75,1.469 -1.43,0 -2.64,-0.43 -3.6,-1.629 -0.84,-1.043 -1.46,-2.532 -1.64,-4.461 z m -5,-15.262 c -1.87,0 -3.81,0.301 -5.27,0.902 -1.66,0.59 -2.85,1.481 -3.99,2.52 -1.13,1.059 -1.93,2.418 -2.46,4.07 -0.6,1.321 -0.9,3.258 -0.9,5.199 0,1.942 0.3,3.739 0.9,5.239 0.53,1.652 1.33,2.992 2.46,4.043 1.14,1.187 2.33,1.937 3.81,2.547 1.57,0.582 3.28,0.882 5.24,0.882 1.93,0 3.59,-0.3 5.21,-0.73 1.37,-0.621 2.78,-1.512 3.81,-2.57 1.13,-1.032 1.88,-2.379 2.54,-3.871 0.41,-1.5 0.68,-3.301 0.68,-5.391 v -1.617 h -17.48 c 0,-1.223 0.18,-2.274 0.45,-3.172 l 1.19,-2.07 1.64,-1.192 2.17,-0.469 c 1.45,0 2.54,0.332 3.38,0.903 0.82,0.468 1.33,1.5 1.62,2.558 h 6.58 c -0.23,-1.058 -0.82,-2.269 -1.34,-3.3 -0.53,-1.059 -1.49,-1.801 -2.46,-2.391 -0.96,-0.758 -2.25,-1.188 -3.44,-1.5 -1.27,-0.289 -2.62,-0.59 -4.34,-0.59"
         style="fill:#2e2d2d;fill-opacity:1;fill-rule:nonzero;stroke:none"
         id="path228" /><path
         d="m 1538.85,438.801 h -2.4 c -2.31,0 -4.03,-0.153 -5.14,-0.762 -1.27,-0.59 -1.93,-1.801 -1.93,-3.129 0,-1.031 0.5,-1.93 1.03,-2.398 0.9,-0.571 1.64,-0.903 2.91,-0.903 1.09,0 2.23,0.332 3.13,0.762 1.13,0.43 1.71,1.039 2.4,1.801 z m 0.08,-8.832 c -1.04,-0.731 -2.33,-1.641 -3.52,-1.93 -1.43,-0.449 -2.93,-0.75 -4.71,-0.75 -1.13,0 -2.22,0.141 -3.28,0.43 -1.13,0.32 -1.95,0.769 -2.75,1.519 l -1.82,2.09 c -0.37,0.902 -0.53,1.942 -0.53,2.981 0,2.98 1.29,5.07 3.73,6.429 2.19,1.332 5.77,2.082 10.71,2.082 h 2.09 v 1.2 l -0.16,1.199 c 0,1.203 -0.53,2.09 -1.11,2.519 -0.67,0.621 -1.8,0.903 -3.3,0.903 -1.33,0 -2.62,-0.282 -3.28,-0.903 -0.82,-0.429 -1.2,-1.316 -1.2,-2.519 h -6.56 c 0.43,4.941 4.18,7.472 11.33,7.472 0.98,0 1.88,0 2.62,-0.152 0.97,0 1.5,-0.148 2.32,-0.148 l 1.64,-0.582 1.64,-0.899 1.35,-1.211 0.98,-1.488 0.45,-1.949 0.21,-2.543 v -15.84 h -6.85 v 2.09"
         style="fill:#2e2d2d;fill-opacity:1;fill-rule:nonzero;stroke:none"
         id="path230" /><path
         d="m 1566.99,445.648 -2.24,1.524 -2.45,0.43 c -1.64,0 -2.69,-0.59 -3.59,-1.954 -0.82,-1.168 -1.03,-3.097 -1.03,-5.808 0,-5.059 1.32,-7.469 4.31,-7.469 l 2.62,0.899 2.38,2.242 z m 0.24,-14.777 c -0.96,-1.199 -2.17,-2.09 -3.28,-2.543 -1.2,-0.738 -2.47,-1.039 -3.83,-1.039 -1.64,0 -3.05,0.301 -4.24,0.902 -1.27,0.59 -2.4,1.329 -2.99,2.379 -1.05,1.2 -1.58,2.41 -2.03,4.039 -0.37,1.493 -0.59,3.289 -0.59,5.231 0,1.949 0.22,3.742 0.77,5.238 0.42,1.633 1.11,2.992 1.93,4.184 0.98,1.027 1.93,1.937 3.26,2.547 1.29,0.582 2.62,0.882 4.3,0.882 1.46,0 2.6,-0.152 3.73,-0.589 l 2.73,-1.653 v 10.93 h 7.11 v -33.5 h -6.87 v 2.992"
         style="fill:#2e2d2d;fill-opacity:1;fill-rule:nonzero;stroke:none"
         id="path232" /><path
         d="m 1596.37,442.551 c -0.32,2.07 -0.82,3.711 -1.57,4.621 -0.89,1.039 -2.26,1.469 -3.96,1.469 -1.27,0 -2.4,-0.43 -3.52,-1.629 -0.84,-1.043 -1.32,-2.532 -1.32,-4.461 z m -5.1,-15.262 c -2.07,0 -3.65,0.301 -5.27,0.902 -1.66,0.59 -3.09,1.481 -4.22,2.52 -1.04,1.059 -1.94,2.418 -2.42,4.07 -0.55,1.321 -0.84,3.258 -0.84,5.199 0,1.942 0.29,3.739 0.84,5.239 0.48,1.652 1.38,2.992 2.42,4.043 1.13,1.187 2.56,1.937 3.88,2.547 1.66,0.582 3.3,0.882 5.18,0.882 1.93,0 3.73,-0.3 5.21,-0.73 1.72,-0.621 2.84,-1.512 3.89,-2.57 1.13,-1.032 1.95,-2.379 2.48,-3.871 0.51,-1.5 0.82,-3.301 0.82,-5.391 v -1.617 h -17.42 c 0,-1.223 0.18,-2.274 0.37,-3.172 l 1.13,-2.07 1.64,-1.192 2.31,-0.469 c 1.27,0 2.4,0.332 3.14,0.903 0.9,0.468 1.57,1.5 1.86,2.558 h 6.43 c -0.28,-1.058 -0.51,-2.269 -1.25,-3.3 -0.71,-1.059 -1.51,-1.801 -2.56,-2.391 -0.9,-0.758 -2.09,-1.188 -3.34,-1.5 -1.37,-0.289 -2.78,-0.59 -4.28,-0.59"
         style="fill:#2e2d2d;fill-opacity:1;fill-rule:nonzero;stroke:none"
         id="path234" /><path
         d="m 1623.61,446.422 -1.4,0.289 h -1.64 c -1.14,0 -2.17,-0.289 -3.07,-0.742 -1.04,-0.449 -1.87,-1.207 -2.64,-2.09 v -16 h -7.07 v 24.223 h 7.01 v -3.891 c 0.83,1.488 1.94,2.699 3.07,3.43 1.29,0.75 2.4,1.05 3.81,1.05 h 0.98 l 0.95,-0.152 v -6.117"
         style="fill:#2e2d2d;fill-opacity:1;fill-rule:nonzero;stroke:none"
         id="path236" /><path
         d="m 1844.88,1666.5 v -1.52 c -283.59,169.54 -567.2,68.33 -850.786,-39.26 144.166,80.53 288.326,157.35 432.486,182.83 139.44,-2.09 278.87,-34.57 418.3,-142.05"
         style="fill:#e44a1e;fill-opacity:1;fill-rule:nonzero;stroke:none"
         id="path238" /><path
         d="m 1426.58,1808.55 c -216.44,-20.07 -432.908,-214.25 -649.361,-292.57 -216.457,-96.45 -432.918,-77.02 -649.371,-88.71 0,66.66 0,133.33 0,199.99 423.183,-245.18 846.363,138.13 1269.532,181.38 9.75,0.1 19.48,0.08 29.2,-0.09"
         style="fill:#f3f1f1;fill-opacity:1;fill-rule:nonzero;stroke:none"
         id="path240" /><path
         d="m 1844.88,1842.88 c 0,-22.1 0,-44.21 0,-66.31 -286.17,83.68 -572.34,31.72 -858.513,-114.48 -286.176,-142.71 -572.347,-246.48 -858.519,-116.93 0,99.23 0,198.48 0,297.72 572.343,0 1144.692,0 1717.032,0"
         style="fill:#41b9b6;fill-opacity:1;fill-rule:nonzero;stroke:none"
         id="path242" /><path
         d="m 1844.88,1842.88 c 0,-58.9 0,-117.8 0,-176.71 -227.26,183.13 -454.51,142.28 -681.75,125.77 -227.263,-24.65 -454.517,-24.97 -681.767,50.94 454.504,0 909.007,0 1363.517,0"
         style="fill:#252323;fill-opacity:1;fill-rule:nonzero;stroke:none"
         id="path244" /><path
         d="m 1373.14,1563.29 c -1.48,0.14 -2.61,0.57 -3.88,0.57 -1.72,0 -2.83,-0.57 -3.52,-0.73 -0.97,-0.6 -0.97,-1.22 -0.97,-1.94 l 0.31,-1.21 2.24,-0.9 2.84,-1.03 2.4,-0.76 1.35,-1.61 c 0.66,-0.77 0.66,-1.24 0.5,-2.42 0.16,-1.19 -0.5,-2.69 -1.85,-3.26 -1.13,-1.37 -2.77,-1.52 -5.02,-1.66 -1.88,0.14 -3.81,0.43 -5.22,0.76 l 0.59,2.07 c 1.19,-0.74 2.75,-0.74 4.63,-0.74 1.11,-0.29 2.62,0 3.38,0.44 l 1.33,2.1 -0.82,1.94 c -0.3,0.3 -1.64,0.77 -3.07,1.63 -1.35,0 -2.44,0.32 -2.83,0.61 l -1.8,0.6 -0.82,1.33 -0.74,2.11 c 0,1.34 0.74,2.67 1.93,3.28 1.43,0.9 2.91,1.18 5.16,1.33 1.27,0 2.99,-0.15 3.88,-0.57 v -1.94"
         style="fill:#2e2d2d;fill-opacity:1;fill-rule:nonzero;stroke:none"
         id="path246" /><path
         d="m 1392.42,1553.71 -0.45,3.01 c -1.85,-0.18 -3.81,-0.18 -4.33,-0.48 -1.14,0 -1.62,-0.56 -2.46,-1.03 l -0.82,-1.95 0.82,-2.09 c 0.84,-0.3 1.03,-0.74 2.01,-0.74 0.68,0 1.56,0.44 2.77,1.17 0.96,0.47 1.93,1.08 2.46,2.11 m 2.6,-4.94 h -2.6 c -0.31,0.61 -0.31,1.66 -0.31,2.83 -1.19,-2.22 -3.26,-2.83 -5.9,-3.12 -1.03,0.29 -2.17,0.29 -2.97,1.52 -0.84,0.57 -1.36,1.6 -1.36,2.97 l 0.52,2.24 1.35,1.65 2.27,0.89 c 0.86,0.59 1.85,0.59 3.47,0.43 l 2.93,0.77 -0.31,0.44 c 0.31,2.7 -1.48,4.32 -3.95,4.32 l -2.14,-0.42 c -1.45,0 -2.27,-0.76 -2.48,-1.2 l -0.9,1.93 c 1.93,1.35 4.18,1.78 6.21,1.78 4.02,0 5.9,-1.94 5.9,-5.96 l 0.21,-7.34 c 0,-1.63 -0.21,-2.36 0.06,-3.73"
         style="fill:#2e2d2d;fill-opacity:1;fill-rule:nonzero;stroke:none"
         id="path248" /><path
         d="m 1415.94,1548.77 h -2.76 v 10.92 c 0,2.84 -0.37,4.17 -0.97,4.02 -0.98,0.15 -1.64,-0.42 -1.78,-1.18 -0.82,-1.05 -1.48,-1.34 -1.13,-1.34 v -12.42 h -2.44 l -0.24,11.07 c 0.24,2.69 -0.45,4.02 -1.29,4.02 -0.95,0 -1.25,-0.43 -1.93,-1.77 l -0.69,-0.9 v -12.42 h -2.75 v 16.88 h 2.46 v -2.36 c 0.45,1.03 0.98,1.47 1.96,2.08 0.95,0.28 1.11,0.43 1.79,0.43 l 1.8,-0.43 c 0.58,-0.61 0.98,-1.05 0.98,-2.08 0.66,1.03 0.89,1.47 1.77,1.94 l 2.09,0.57 c 2.17,0 3.13,-1.48 3.13,-5.35 v -11.68"
         style="fill:#2e2d2d;fill-opacity:1;fill-rule:nonzero;stroke:none"
         id="path250" /><path
         d="m 1423.79,1561.19 0.1,-7.03 c 0.56,-0.9 1.11,-1.8 2.09,-2.56 0.66,-0.73 1.19,-1.17 2.28,-0.73 1.45,0 3.09,0.3 3.17,1.63 0.74,1.37 1.25,3.18 1.25,4.79 0,2.1 -0.3,3.73 -1.25,4.62 -0.39,1.52 -1.72,1.95 -3.3,1.95 -1.49,0 -3.13,-0.57 -4.34,-2.67 m 0,2.24 2.19,1.94 c 0.95,0.43 2.15,0.76 3.12,0.43 2.25,0 3.58,-0.57 4.71,-1.94 1.35,-1.95 1.64,-3.41 1.64,-6.57 0.08,-2.38 -0.68,-4.32 -1.8,-6.42 -0.97,-1.49 -2.3,-2.1 -4.55,-2.24 -0.97,0.14 -2.17,0.14 -3.12,0.75 -0.98,0.62 -1.53,1.05 -2.09,1.79 l 0.27,-8.81 h -2.75 l 0.29,23.29 h 2.19 l -0.1,-2.22"
         style="fill:#2e2d2d;fill-opacity:1;fill-rule:nonzero;stroke:none"
         id="path252" /><path
         d="m 1453.14,1549.1 -7.24,0.14 -0.27,20.46 h -4.15 v 1.94 h 7.13 v -20.31 l 4.53,-0.46 v -1.77"
         style="fill:#2e2d2d;fill-opacity:1;fill-rule:nonzero;stroke:none"
         id="path254" /><path
         d="m 1471.31,1559.39 c 0.29,1.35 0,2.52 -1.13,3.57 -0.67,0.75 -1.49,1.06 -2.6,1.06 -1.12,0.3 -2.42,-0.16 -2.99,-1.06 -1.13,-1.05 -1.43,-2.22 -1.64,-3.57 z m 2.91,-2.1 h -11.27 c 0,-1.61 0.21,-3.13 1.64,-4.79 0.88,-0.9 2.44,-1.63 4.1,-2.07 1.35,0.74 2.97,0.74 4.65,1.17 l 0.57,-1.6 c -1.33,-0.9 -3.28,-1.37 -5.51,-1.37 -2.48,0.14 -4.63,0.75 -6.08,2.24 -1.32,1.63 -2.14,4.04 -2.14,6.42 0.27,2.69 0.5,4.8 2.14,6.57 0.84,1.79 3.15,2.1 5.39,2.27 1.8,0 3.6,-0.48 4.87,-1.81 0.76,-1.36 1.85,-3.87 1.64,-6.14 v -0.89"
         style="fill:#2e2d2d;fill-opacity:1;fill-rule:nonzero;stroke:none"
         id="path256" /><path
         d="m 1513.5,1550 c -1.41,-0.62 -3.05,-1.23 -5,-1.23 -2.84,0 -4.26,1.8 -4.4,4.49 l 0.14,10.6 h -3.36 v 1.94 h 3.36 v 4.49 h 2.38 l -0.27,-4.49 h 6.03 l -0.29,-1.94 h -5.47 l 0.1,-9.7 0.66,-2.09 1.74,-1.2 c 1.64,0 2.74,0.73 3.81,0.9 l 0.57,-1.77"
         style="fill:#2e2d2d;fill-opacity:1;fill-rule:nonzero;stroke:none"
         id="path258" /><path
         d="m 1531.05,1559.69 c 0,1.5 -0.29,2.22 -1.32,3.6 -0.9,0.57 -1.64,1.03 -2.78,1.18 -1.4,-0.15 -2.46,-0.61 -2.97,-1.18 -0.91,-1.38 -1.42,-2.1 -1.64,-3.45 z m 2.49,-1.94 h -11.53 c 0,-1.79 0.82,-3.31 1.97,-4.78 1.04,-1.37 2.47,-2.1 4.18,-2.1 1.12,0 2.89,0.3 4.57,1.2 l 0.57,-1.93 c -1.41,-1.04 -3.34,-1.37 -5.53,-1.37 -2.22,0 -4.39,1.23 -5.76,2.4 -1.64,1.8 -2.44,3.74 -2.44,6.58 0.14,2.7 1.04,4.78 1.8,6.27 1.46,1.63 3.65,2.54 5.58,2.54 1.88,0 3.3,-0.76 4.94,-2.09 1.12,-1.34 1.65,-3.45 1.65,-6.13 v -0.59"
         style="fill:#2e2d2d;fill-opacity:1;fill-rule:nonzero;stroke:none"
         id="path260" /><path
         d="m 1553.63,1549.38 h -2.61 l -4.87,6.73 -4.63,-6.73 h -2.48 l 6,8.37 -6,8.38 h 2.78 l 4.33,-6.29 4.87,6.29 h 2.61 l -6.07,-8.38 6.07,-8.37"
         style="fill:#2e2d2d;fill-opacity:1;fill-rule:nonzero;stroke:none"
         id="path262" /><path
         d="m 1573.11,1550.14 c -1.63,-0.76 -3.42,-1.04 -5.2,-0.9 -2.77,-0.14 -4.12,1.19 -4.12,4.47 l -0.31,10.31 -3.27,0.3 v 1.64 l 3.27,0.17 v 4.77 h 2.48 v -4.48 l 5.76,-0.29 0.27,-1.81 h -6.03 v -9.71 c 0,-1.35 0.29,-2.11 0.9,-2.54 l 1.87,-0.74 c 0.96,-0.16 2.75,0.27 4.08,1.03 l 0.3,-2.22"
         style="fill:#2e2d2d;fill-opacity:1;fill-rule:nonzero;stroke:none"
         id="path264" /><path
         d="m 1612.58,1550 h -2.64 v 10.45 c 0,1.46 -0.29,2.84 -0.66,3.41 -0.53,0.61 -1.27,0.9 -2.39,0.9 -1.36,0 -2.98,-0.9 -4.92,-2.98 l 0.28,-11.78 h -2.76 v 22.38 l 2.48,0.16 -0.31,-8.83 c 2.25,2.09 3.87,3.32 6.11,3.32 2.99,-0.17 4.87,-1.8 4.87,-5.84 l -0.06,-11.19"
         style="fill:#2e2d2d;fill-opacity:1;fill-rule:nonzero;stroke:none"
         id="path266" /><path
         d="m 1630.12,1559.98 c -0.16,1.5 -0.37,2.11 -1.64,3.31 -0.24,1.18 -1.78,1.47 -2.62,1.47 -0.98,0 -2.46,-0.29 -2.99,-1.33 -0.82,-0.9 -1.42,-1.95 -1.5,-3.45 z m 2.91,-1.93 h -11.66 c 0,-1.81 0.08,-3.14 1.85,-4.65 0.76,-1.33 2.11,-1.8 3.48,-1.8 1.54,0 3.57,0.17 5.21,0.76 v -1.93 c -0.97,-0.59 -3,-1.05 -4.94,-1.05 -2.91,-0.28 -4.41,0.62 -6.34,2.22 -1.12,1.51 -1.88,3.61 -1.88,6.74 0,2.68 0,4.62 1.88,6.13 1.42,1.66 3.35,2.56 5.23,2.56 1.8,0 3.89,-0.9 5,-2.27 1.05,-1.33 2.17,-3.41 2.01,-5.81 l 0.16,-0.9"
         style="fill:#2e2d2d;fill-opacity:1;fill-rule:nonzero;stroke:none"
         id="path268" /><path
         d="m 1652.3,1566.13 -1.11,-2.27 -2.48,0.61 c -1.41,0 -1.64,0 -2.38,-0.61 -0.67,-0.43 -1.21,-0.9 -2.19,-1.95 l -0.96,-1.17 0.16,-10.6 h -2.38 v 16.42 l 2.22,-0.14 0.16,-3.13 c 1.64,2.36 2.99,3.74 5.37,3.74 1.06,0 2.48,0 3.59,-0.9"
         style="fill:#2e2d2d;fill-opacity:1;fill-rule:nonzero;stroke:none"
         id="path270" /><path
         d="m 1669.55,1560.45 c 0,1.33 -0.29,2.08 -1.03,3.41 -1.25,0.46 -1.96,0.9 -3.07,1.37 -1.27,0 -2.09,-0.76 -3.07,-1.37 -1.03,-0.9 -1.03,-2.08 -1.34,-3.41 z m 2.77,-2.11 -11.28,-0.16 c 0,-1.94 0.31,-3.27 1.34,-4.92 1.14,-0.9 2.54,-1.66 4.18,-1.66 1.37,0 3.3,0.47 4.57,0.9 l 0.67,-2.07 c -1.41,-0.43 -3.28,-1.05 -5.24,-1.05 -2.38,0 -4.55,0.76 -6.19,2.39 -1.19,1.49 -1.8,3.91 -1.8,6.57 0,2.85 0.24,4.79 1.8,6.42 0.98,1.8 2.99,2.41 5.08,2.27 1.95,0 3.81,-0.61 4.71,-2.11 1.64,-1.49 2.16,-3.44 2.16,-5.97 v -0.61"
         style="fill:#2e2d2d;fill-opacity:1;fill-rule:nonzero;stroke:none"
         id="path272" /><path
         d="m 1312.7,1622.43 h 9.49 l -14.92,-43.62 h -8.46 l -14.79,43.62 h 9.79 l 9.47,-33.17 9.42,33.17"
         style="fill:#2e2d2d;fill-opacity:1;fill-rule:nonzero;stroke:none"
         id="path274" /><path
         d="m 1332.15,1603.18 c -1.29,-1.36 -2.19,-2.99 -2.42,-5.09 h 14.59 c 0,2.24 -0.98,4.04 -2.33,5.09 -1.05,1.33 -2.91,1.78 -4.92,1.78 -2.09,0 -3.73,-0.45 -4.92,-1.78 m 12.6,7.15 c 2.18,-0.88 4.27,-2.38 5.46,-4.63 1.41,-1.77 2.25,-3.88 2.49,-6.72 0.37,-1.64 0.56,-3.74 0.56,-6.27 h -23.53 c 0,-3.45 1.13,-5.82 3.38,-6.88 1.19,-0.91 2.85,-1.04 4.49,-1.04 1.93,0 3.57,0.13 4.86,1.34 l 1.62,2.09 h 8.62 c -0.24,-1.79 -1.22,-3.87 -3.01,-5.82 -2.99,-3.14 -7.07,-4.63 -12.25,-4.63 -4.33,0 -8.05,1.18 -11.42,3.87 -3.01,2.71 -4.87,7.03 -4.87,13.03 0,5.52 1.51,9.99 4.34,12.83 3.06,3.14 6.87,4.48 11.58,4.48 2.97,0 5.55,-0.59 7.68,-1.65"
         style="fill:#2e2d2d;fill-opacity:1;fill-rule:nonzero;stroke:none"
         id="path276" /><path
         d="m 1376.74,1599.57 c -0.08,1.04 -0.55,2.25 -1.21,3.14 -0.8,1.37 -2.39,1.95 -4.4,1.95 -2.77,0 -4.78,-1.34 -5.82,-4.05 -0.6,-1.63 -0.9,-3.58 -0.9,-5.94 0,-2.57 0.3,-4.51 0.9,-6 1.04,-2.54 2.83,-3.88 5.61,-3.88 2.15,0 3.49,0.6 4.31,1.64 0.69,1.03 1.14,2.24 1.43,4.2 h 8.75 c -0.23,-2.7 -1.05,-5.1 -2.77,-7.33 -2.84,-3.75 -6.72,-5.53 -11.72,-5.53 -5.26,0 -9.12,1.49 -11.58,4.63 -2.46,2.99 -3.89,7.01 -3.89,11.79 0,5.67 1.48,10.03 4.26,13 2.61,3.14 6.5,4.79 11.21,4.79 4.1,0 7.38,-0.91 9.98,-2.85 2.64,-1.63 3.98,-5.05 4.51,-9.56 h -8.67"
         style="fill:#2e2d2d;fill-opacity:1;fill-rule:nonzero;stroke:none"
         id="path278" /><path
         d="m 1387.87,1604.8 v 5.84 h 4.55 v 9.26 h 8.28 v -9.26 h 5.32 v -5.84 h -5.32 v -17.17 c 0,-1.2 0.24,-2.1 0.69,-2.24 0.21,-0.47 1.32,-0.6 2.69,-0.6 h 1.12 0.82 v -6.27 l -4.11,-0.14 c -3.8,0 -6.58,0.43 -8.28,2.07 -0.76,1.05 -1.21,2.54 -1.21,4.47 v 19.88 h -4.55"
         style="fill:#2e2d2d;fill-opacity:1;fill-rule:nonzero;stroke:none"
         id="path280" /><path
         d="m 1431.64,1587.46 c 1.27,1.8 2.01,4.21 2.01,7.34 0,3.29 -0.74,5.81 -2.01,7.77 -1.44,1.51 -3.38,2.39 -5.82,2.39 -2.48,0 -4.41,-0.88 -5.61,-2.39 -1.28,-1.96 -1.95,-4.48 -1.95,-7.77 0,-3.13 0.67,-5.54 1.95,-7.34 1.2,-1.78 3.13,-2.67 5.61,-2.67 2.44,0 4.38,0.89 5.82,2.67 m 6.88,-4.63 c -3.07,-3.42 -7.09,-5.06 -12.7,-5.06 -5.53,0 -9.65,1.64 -12.27,5.06 -2.83,3.3 -4.25,7.33 -4.25,11.97 0,4.77 1.42,8.81 4.25,12.25 2.62,3.28 6.74,5.07 12.27,5.07 5.61,0 9.63,-1.79 12.7,-5.07 2.4,-3.44 3.8,-7.48 3.8,-12.25 0,-4.64 -1.4,-8.67 -3.8,-11.97"
         style="fill:#2e2d2d;fill-opacity:1;fill-rule:nonzero;stroke:none"
         id="path282" /><path
         d="m 1466.37,1611.98 0.66,-0.14 v -8.66 h -2.3 c -3.52,0 -5.75,-0.91 -7.02,-3.32 -0.6,-1.19 -0.76,-2.98 -0.76,-5.67 v -15.38 h -8.34 v 32.41 h 7.84 v -5.67 c 1.26,2.09 2.53,3.58 3.51,4.34 1.25,1.33 3.5,2.09 6.09,2.09 h 0.32"
         style="fill:#2e2d2d;fill-opacity:1;fill-rule:nonzero;stroke:none"
         id="path284" /><path
         d="m 1512.93,1580 h -7.19 v 14.67 h -13.38 V 1580 h -7.16 v 33.5 h 7.16 v -13.02 h 13.38 v 13.02 h 7.19 V 1580"
         style="fill:#2e2d2d;fill-opacity:1;fill-rule:nonzero;stroke:none"
         id="path286" /><path
         d="m 1535.47,1594.67 c 0,2.07 -0.51,3.71 -1.49,4.62 -0.97,1.04 -2.09,1.47 -3.73,1.47 -1.42,0 -2.63,-0.43 -3.61,-1.63 -0.82,-1.04 -1.46,-2.53 -1.62,-4.46 z m -5.02,-15.26 c -1.86,0 -3.81,0.3 -5.27,0.9 -1.66,0.59 -2.84,1.48 -3.97,2.52 -1.13,1.06 -1.93,2.42 -2.46,4.06 -0.62,1.33 -0.9,3.27 -0.9,5.21 0,1.94 0.28,3.74 0.9,5.24 0.53,1.64 1.33,2.99 2.46,4.04 1.13,1.19 2.31,1.94 3.81,2.55 1.56,0.58 3.28,0.87 5.23,0.87 1.94,0 3.58,-0.29 5.22,-0.72 1.35,-0.62 2.77,-1.51 3.81,-2.56 1.13,-1.04 1.87,-2.39 2.54,-3.88 0.39,-1.5 0.68,-3.3 0.68,-5.39 v -1.62 h -17.48 c 0,-1.22 0.16,-2.27 0.43,-3.17 l 1.19,-2.07 1.66,-1.19 2.15,-0.47 c 1.44,0 2.56,0.33 3.38,0.9 0.84,0.47 1.33,1.5 1.64,2.56 h 6.58 c -0.23,-1.06 -0.82,-2.27 -1.35,-3.3 -0.52,-1.06 -1.5,-1.8 -2.46,-2.39 -0.97,-0.76 -2.24,-1.19 -3.44,-1.5 -1.26,-0.29 -2.61,-0.59 -4.35,-0.59"
         style="fill:#2e2d2d;fill-opacity:1;fill-rule:nonzero;stroke:none"
         id="path288" /><path
         d="m 1562.3,1590.92 h -2.42 c -2.28,0 -4.02,-0.15 -5.13,-0.76 -1.27,-0.59 -1.94,-1.8 -1.94,-3.13 0,-1.03 0.51,-1.93 1.04,-2.4 0.9,-0.57 1.66,-0.9 2.91,-0.9 1.11,0 2.24,0.33 3.12,0.76 1.14,0.43 1.72,1.04 2.42,1.8 z m 0.06,-8.83 c -1.03,-0.73 -2.32,-1.64 -3.51,-1.93 -1.41,-0.45 -2.91,-0.75 -4.71,-0.75 -1.11,0 -2.23,0.14 -3.28,0.43 -1.11,0.32 -1.93,0.77 -2.75,1.52 l -1.8,2.09 c -0.39,0.9 -0.53,1.94 -0.53,2.98 0,2.98 1.27,5.07 3.73,6.43 2.19,1.33 5.76,2.08 10.7,2.08 h 2.09 v 1.2 l -0.15,1.2 c 0,1.2 -0.55,2.09 -1.13,2.52 -0.67,0.62 -1.78,0.9 -3.29,0.9 -1.32,0 -2.61,-0.28 -3.28,-0.9 -0.82,-0.43 -1.21,-1.32 -1.21,-2.52 h -6.56 c 0.45,4.93 4.18,7.46 11.35,7.46 0.97,0 1.85,0 2.61,-0.14 0.96,0 1.51,-0.15 2.33,-0.15 l 1.62,-0.58 1.66,-0.9 1.33,-1.21 0.99,-1.49 0.43,-1.95 0.24,-2.54 V 1580 h -6.88 v 2.09"
         style="fill:#2e2d2d;fill-opacity:1;fill-rule:nonzero;stroke:none"
         id="path290" /><path
         d="m 1590.45,1597.77 -2.25,1.52 -2.46,0.43 c -1.64,0 -2.67,-0.59 -3.57,-1.95 -0.84,-1.17 -1.04,-3.1 -1.04,-5.81 0,-5.07 1.33,-7.47 4.3,-7.47 l 2.64,0.9 2.38,2.24 z m 0.23,-14.78 c -0.97,-1.2 -2.16,-2.09 -3.28,-2.54 -1.21,-0.74 -2.46,-1.04 -3.85,-1.04 -1.62,0 -3.02,0.3 -4.21,0.9 -1.29,0.59 -2.43,1.33 -3.01,2.38 -1.04,1.2 -1.56,2.41 -2.01,4.04 -0.37,1.49 -0.61,3.29 -0.61,5.23 0,1.95 0.24,3.74 0.76,5.24 0.43,1.63 1.12,2.99 1.96,4.18 0.95,1.03 1.93,1.94 3.26,2.55 1.27,0.58 2.61,0.87 4.27,0.87 1.47,0 2.6,-0.14 3.74,-0.58 l 2.75,-1.65 v 10.93 h 7.09 V 1580 h -6.86 v 2.99"
         style="fill:#2e2d2d;fill-opacity:1;fill-rule:nonzero;stroke:none"
         id="path292" /><path
         d="m 1619.8,1594.67 c -0.29,2.07 -0.82,3.71 -1.56,4.62 -0.9,1.04 -2.24,1.47 -3.96,1.47 -1.27,0 -2.4,-0.43 -3.52,-1.63 -0.82,-1.04 -1.33,-2.53 -1.33,-4.46 z m -5.09,-15.26 c -2.07,0 -3.64,0.3 -5.28,0.9 -1.66,0.59 -3.06,1.48 -4.2,2.52 -1.03,1.06 -1.93,2.42 -2.44,4.06 -0.54,1.33 -0.82,3.27 -0.82,5.21 0,1.94 0.28,3.74 0.82,5.24 0.51,1.64 1.41,2.99 2.44,4.04 1.14,1.19 2.54,1.94 3.87,2.55 1.66,0.58 3.32,0.87 5.18,0.87 1.95,0 3.75,-0.29 5.23,-0.72 1.72,-0.62 2.83,-1.51 3.89,-2.56 1.11,-1.04 1.93,-2.39 2.46,-3.88 0.53,-1.5 0.84,-3.3 0.84,-5.39 v -1.62 h -17.42 c 0,-1.22 0.15,-2.27 0.37,-3.17 l 1.11,-2.07 1.66,-1.19 2.29,-0.47 c 1.29,0 2.42,0.33 3.14,0.9 0.9,0.47 1.56,1.5 1.88,2.56 h 6.42 c -0.29,-1.06 -0.51,-2.27 -1.27,-3.3 -0.68,-1.06 -1.48,-1.8 -2.54,-2.39 -0.89,-0.76 -2.09,-1.19 -3.36,-1.5 -1.34,-0.29 -2.75,-0.59 -4.27,-0.59"
         style="fill:#2e2d2d;fill-opacity:1;fill-rule:nonzero;stroke:none"
         id="path294" /><path
         d="m 1647.07,1598.54 -1.41,0.29 H 1644 c -1.11,0 -2.14,-0.29 -3.04,-0.74 -1.04,-0.45 -1.88,-1.21 -2.64,-2.09 v -16 h -7.07 v 24.22 h 6.99 v -3.89 c 0.84,1.49 1.96,2.7 3.07,3.43 1.29,0.75 2.4,1.04 3.81,1.04 h 0.97 l 0.98,-0.14 v -6.12"
         style="fill:#2e2d2d;fill-opacity:1;fill-rule:nonzero;stroke:none"
         id="path296" /><path
         d="m 127.848,856.859 v 0.403 C 320.574,946.02 636.66,1012.59 977.129,1027.27 804.688,994.84 648.75,949.148 511.25,908.09 363.895,907.621 224.469,893.629 127.848,856.859"
         style="fill:#e44a1e;fill-opacity:1;fill-rule:nonzero;stroke:none"
         id="path298" /><path
         d="m 511.25,908.09 c 203.848,61.82 460.188,134.17 731.07,156.33 262.91,22.16 540.38,-5.87 602.56,-144.811 0,-17.48 0,-34.968 0,-52.461 -280.86,145.462 -892.407,107.973 -1302.567,40.891 -10.399,0.082 -20.754,0.09 -31.063,0.051"
         style="fill:#f3f1f1;fill-opacity:1;fill-rule:nonzero;stroke:none"
         id="path300" /><path
         d="m 127.848,810.602 c 0,5.796 0,11.597 0,17.386 246.285,42.121 520.047,124.102 859.195,162.141 324.617,38.051 714.617,32.161 857.837,-101.438 0,-26.031 0,-52.062 0,-78.089 -572.34,0 -1144.689,0 -1717.032,0"
         style="fill:#41b9b6;fill-opacity:1;fill-rule:nonzero;stroke:none"
         id="path302" /><path
         d="m 127.848,810.602 c 0,15.449 0,30.886 0,46.339 159.293,60.02 424.148,59.27 668.379,38.09 249.793,-21.16 478.953,-62.761 695.143,-84.429 -454.5,0 -909.011,0 -1363.522,0"
         style="fill:#252323;fill-opacity:1;fill-rule:nonzero;stroke:none"
         id="path304" /><path
         d="m 1844.88,403.039 v 0.82 C 1561.29,212.488 1277.7,316.691 994.102,423.551 1138.27,355.641 1282.44,288.43 1426.6,260.379 c 139.42,-0.688 278.85,35.262 418.28,142.66"
         style="fill:#e44a1e;fill-opacity:1;fill-rule:nonzero;stroke:none"
         id="path306" /><path
         d="M 1426.6,260.379 C 993.684,344.832 560.766,782.488 127.848,531.371 c 0,-35.75 0,-71.519 0,-107.281 423.183,279.398 846.363,-99.36 1269.532,-163.031 9.75,-0.399 19.48,-0.618 29.22,-0.68"
         style="fill:#f3f1f1;fill-opacity:1;fill-rule:nonzero;stroke:none"
         id="path308" /><path
         d="m 1844.88,308.43 c 0,11.851 0,23.711 0,35.558 C 1272.54,-15.918 700.191,828.039 127.848,468.129 c 0,-53.231 0,-106.469 0,-159.699 572.343,401.289 1144.692,-401.2894 1717.032,0"
         style="fill:#41b9b6;fill-opacity:1;fill-rule:nonzero;stroke:none"
         id="path310" /><path
         d="m 1844.88,308.43 c 0,31.601 0,63.191 0,94.789 C 1390.37,52.9492 935.859,461.871 481.348,424.211 935.859,430.27 1390.37,-10.2383 1844.88,308.43"
         style="fill:#252323;fill-opacity:1;fill-rule:nonzero;stroke:none"
         id="path312" /><path
         d="m 363.363,1075.8 c -1.504,0.14 -2.636,0.57 -3.886,0.57 -1.719,0 -2.852,-0.57 -3.516,-0.73 -0.977,-0.6 -0.977,-1.21 -0.977,-1.94 l 0.293,-1.21 2.246,-0.9 2.852,-1.03 2.383,-0.76 1.347,-1.62 c 0.665,-0.76 0.665,-1.23 0.528,-2.41 0.137,-1.19 -0.528,-2.7 -1.875,-3.26 -1.133,-1.37 -2.754,-1.53 -5,-1.66 -1.875,0.13 -3.809,0.43 -5.235,0.76 l 0.586,2.07 c 1.211,-0.74 2.774,-0.74 4.649,-0.74 1.094,-0.3 2.617,0 3.379,0.44 l 1.328,2.1 -0.84,1.94 c -0.293,0.29 -1.621,0.76 -3.066,1.63 -1.329,0 -2.442,0.31 -2.832,0.61 l -1.778,0.61 -0.84,1.32 -0.722,2.11 c 0,1.34 0.722,2.67 1.933,3.28 1.407,0.9 2.91,1.18 5.157,1.33 1.25,0 2.988,-0.15 3.886,-0.57 v -1.94"
         style="fill:#2e2d2d;fill-opacity:1;fill-rule:nonzero;stroke:none"
         id="path314" /><path
         d="m 382.621,1066.22 -0.43,3.01 c -1.875,-0.18 -3.808,-0.18 -4.336,-0.48 -1.132,0 -1.64,-0.57 -2.46,-1.04 l -0.84,-1.94 0.84,-2.09 c 0.82,-0.3 1.035,-0.74 2.011,-0.74 0.684,0 1.563,0.44 2.754,1.17 0.977,0.47 1.953,1.08 2.461,2.11 m 2.617,-4.94 h -2.617 c -0.293,0.61 -0.293,1.66 -0.293,2.83 -1.191,-2.22 -3.262,-2.83 -5.898,-3.13 -1.035,0.3 -2.168,0.3 -2.969,1.53 -0.84,0.56 -1.387,1.6 -1.387,2.97 l 0.547,2.23 1.328,1.65 2.266,0.91 c 0.879,0.58 1.875,0.58 3.496,0.42 l 2.91,0.77 -0.293,0.43 c 0.293,2.71 -1.504,4.33 -3.945,4.33 l -2.168,-0.42 c -1.426,0 -2.266,-0.76 -2.481,-1.2 l -0.898,1.93 c 1.953,1.35 4.18,1.78 6.23,1.78 4.024,0 5.899,-1.94 5.899,-5.95 l 0.195,-7.35 c 0,-1.63 -0.195,-2.37 0.078,-3.73"
         style="fill:#2e2d2d;fill-opacity:1;fill-rule:nonzero;stroke:none"
         id="path316" /><path
         d="m 406.156,1061.28 h -2.754 v 10.92 c 0,2.84 -0.371,4.17 -0.996,4.02 -0.957,0.15 -1.621,-0.42 -1.777,-1.18 -0.82,-1.05 -1.484,-1.34 -1.113,-1.34 v -12.42 h -2.461 l -0.235,11.08 c 0.235,2.68 -0.449,4.01 -1.269,4.01 -0.977,0 -1.27,-0.43 -1.934,-1.77 l -0.683,-0.9 v -12.42 h -2.754 v 16.88 h 2.461 v -2.36 c 0.449,1.04 0.976,1.47 1.933,2.08 0.977,0.28 1.133,0.43 1.797,0.43 l 1.817,-0.43 c 0.566,-0.61 0.957,-1.04 0.957,-2.08 0.664,1.04 0.898,1.47 1.796,1.94 l 2.09,0.57 c 2.149,0 3.125,-1.47 3.125,-5.35 v -11.68"
         style="fill:#2e2d2d;fill-opacity:1;fill-rule:nonzero;stroke:none"
         id="path318" /><path
         d="m 414.008,1073.7 0.078,-7.03 c 0.586,-0.9 1.113,-1.79 2.09,-2.56 0.664,-0.73 1.191,-1.17 2.304,-0.73 1.426,0 3.067,0.3 3.145,1.63 0.762,1.37 1.27,3.17 1.27,4.79 0,2.09 -0.293,3.72 -1.27,4.63 -0.391,1.51 -1.719,1.94 -3.281,1.94 -1.504,0 -3.145,-0.57 -4.336,-2.67 m 0,2.24 2.168,1.94 c 0.976,0.43 2.168,0.76 3.125,0.43 2.246,0 3.594,-0.57 4.707,-1.94 1.347,-1.94 1.66,-3.41 1.66,-6.57 0.059,-2.38 -0.684,-4.32 -1.816,-6.42 -0.957,-1.49 -2.305,-2.1 -4.551,-2.24 -0.957,0.14 -2.149,0.14 -3.125,0.75 -0.977,0.62 -1.504,1.05 -2.09,1.79 l 0.293,-8.82 h -2.774 l 0.313,23.3 h 2.168 l -0.078,-2.22"
         style="fill:#2e2d2d;fill-opacity:1;fill-rule:nonzero;stroke:none"
         id="path320" /><path
         d="m 443.363,1061.61 -7.246,0.14 -0.273,20.46 h -4.141 v 1.94 h 7.11 v -20.31 l 4.55,-0.46 v -1.77"
         style="fill:#2e2d2d;fill-opacity:1;fill-rule:nonzero;stroke:none"
         id="path322" /><path
         d="m 461.527,1071.89 c 0.274,1.36 0,2.54 -1.152,3.58 -0.664,0.75 -1.465,1.06 -2.598,1.06 -1.113,0.31 -2.402,-0.16 -2.968,-1.06 -1.133,-1.04 -1.446,-2.22 -1.661,-3.58 z m 2.891,-2.09 h -11.27 c 0,-1.62 0.215,-3.13 1.661,-4.79 0.859,-0.9 2.441,-1.63 4.101,-2.07 1.328,0.74 2.969,0.74 4.629,1.17 l 0.586,-1.6 c -1.348,-0.9 -3.281,-1.37 -5.508,-1.37 -2.48,0.14 -4.648,0.75 -6.074,2.24 -1.348,1.63 -2.148,4.04 -2.148,6.42 0.273,2.69 0.507,4.8 2.148,6.57 0.82,1.79 3.125,2.1 5.391,2.27 1.777,0 3.593,-0.48 4.843,-1.8 0.762,-1.37 1.875,-3.88 1.641,-6.15 v -0.89"
         style="fill:#2e2d2d;fill-opacity:1;fill-rule:nonzero;stroke:none"
         id="path324" /><path
         d="m 503.695,1062.51 c -1.386,-0.62 -3.047,-1.23 -4.98,-1.23 -2.852,0 -4.258,1.79 -4.414,4.49 l 0.156,10.6 h -3.359 v 1.94 h 3.359 v 4.49 h 2.383 l -0.274,-4.49 h 6.036 l -0.293,-1.94 h -5.469 l 0.078,-9.7 0.684,-2.09 1.718,-1.2 c 1.641,0 2.754,0.73 3.809,0.9 l 0.566,-1.77"
         style="fill:#2e2d2d;fill-opacity:1;fill-rule:nonzero;stroke:none"
         id="path326" /><path
         d="m 521.273,1072.2 c 0,1.5 -0.312,2.23 -1.347,3.6 -0.899,0.57 -1.621,1.04 -2.774,1.18 -1.406,-0.14 -2.461,-0.61 -2.968,-1.18 -0.899,-1.37 -1.426,-2.1 -1.641,-3.44 z m 2.461,-1.93 h -11.523 c 0,-1.8 0.84,-3.32 1.973,-4.79 1.035,-1.37 2.461,-2.1 4.179,-2.1 1.133,0 2.91,0.3 4.571,1.2 l 0.566,-1.94 c -1.387,-1.03 -3.34,-1.36 -5.508,-1.36 -2.246,0 -4.394,1.23 -5.781,2.4 -1.621,1.8 -2.422,3.74 -2.422,6.59 0.137,2.69 1.035,4.77 1.797,6.26 1.465,1.63 3.633,2.54 5.566,2.54 1.875,0 3.301,-0.76 4.961,-2.09 1.094,-1.34 1.621,-3.46 1.621,-6.13 v -0.58"
         style="fill:#2e2d2d;fill-opacity:1;fill-rule:nonzero;stroke:none"
         id="path328" /><path
         d="m 543.832,1061.89 h -2.617 l -4.844,6.72 -4.629,-6.72 h -2.5 l 6.016,8.38 -6.016,8.37 h 2.774 l 4.355,-6.28 4.844,6.28 h 2.617 l -6.055,-8.37 6.055,-8.38"
         style="fill:#2e2d2d;fill-opacity:1;fill-rule:nonzero;stroke:none"
         id="path330" /><path
         d="m 563.324,1062.64 c -1.64,-0.75 -3.418,-1.03 -5.215,-0.89 -2.773,-0.14 -4.121,1.19 -4.121,4.47 l -0.312,10.31 -3.262,0.31 v 1.63 l 3.262,0.17 v 4.77 h 2.48 v -4.48 l 5.762,-0.29 0.273,-1.8 h -6.035 v -9.72 c 0,-1.35 0.293,-2.11 0.899,-2.54 l 1.875,-0.74 c 0.976,-0.16 2.754,0.27 4.101,1.04 l 0.293,-2.24"
         style="fill:#2e2d2d;fill-opacity:1;fill-rule:nonzero;stroke:none"
         id="path332" /><path
         d="m 602.777,1062.51 h -2.636 v 10.45 c 0,1.47 -0.293,2.84 -0.664,3.41 -0.528,0.61 -1.27,0.9 -2.383,0.9 -1.348,0 -2.989,-0.9 -4.922,-2.98 l 0.293,-11.78 h -2.774 v 22.37 l 2.481,0.17 -0.313,-8.83 c 2.246,2.09 3.887,3.32 6.133,3.32 2.988,-0.18 4.863,-1.8 4.863,-5.84 l -0.078,-11.19"
         style="fill:#2e2d2d;fill-opacity:1;fill-rule:nonzero;stroke:none"
         id="path334" /><path
         d="m 620.316,1072.49 c -0.156,1.5 -0.371,2.11 -1.64,3.31 -0.235,1.18 -1.778,1.47 -2.598,1.47 -0.976,0 -2.48,-0.29 -3.008,-1.33 -0.8,-0.9 -1.425,-1.95 -1.504,-3.45 z m 2.93,-1.93 h -11.68 c 0,-1.81 0.079,-3.14 1.875,-4.65 0.762,-1.33 2.11,-1.8 3.457,-1.8 1.543,0 3.594,0.17 5.215,0.77 v -1.94 c -0.957,-0.6 -3.008,-1.05 -4.941,-1.05 -2.91,-0.28 -4.395,0.62 -6.328,2.22 -1.133,1.52 -1.875,3.6 -1.875,6.74 0,2.67 0,4.62 1.875,6.13 1.426,1.66 3.359,2.56 5.234,2.56 1.797,0 3.867,-0.9 4.981,-2.27 1.054,-1.33 2.187,-3.41 2.031,-5.81 l 0.156,-0.9"
         style="fill:#2e2d2d;fill-opacity:1;fill-rule:nonzero;stroke:none"
         id="path336" /><path
         d="m 642.504,1078.64 -1.094,-2.27 -2.48,0.61 c -1.407,0 -1.66,0 -2.383,-0.61 -0.684,-0.43 -1.211,-0.9 -2.188,-1.94 l -0.976,-1.18 0.176,-10.61 h -2.403 v 16.43 l 2.227,-0.14 0.176,-3.13 c 1.621,2.36 2.988,3.74 5.371,3.74 1.035,0 2.48,0 3.574,-0.9"
         style="fill:#2e2d2d;fill-opacity:1;fill-rule:nonzero;stroke:none"
         id="path338" /><path
         d="m 659.77,1072.96 c 0,1.33 -0.293,2.08 -1.036,3.41 -1.269,0.47 -1.953,0.9 -3.066,1.37 -1.27,0 -2.109,-0.76 -3.086,-1.37 -1.035,-0.9 -1.035,-2.08 -1.328,-3.41 z m 2.753,-2.11 -11.269,-0.16 c 0,-1.94 0.293,-3.27 1.328,-4.92 1.152,-0.89 2.539,-1.66 4.199,-1.66 1.348,0 3.282,0.47 4.551,0.9 l 0.684,-2.07 c -1.426,-0.43 -3.282,-1.05 -5.235,-1.05 -2.383,0 -4.57,0.75 -6.191,2.39 -1.211,1.49 -1.797,3.9 -1.797,6.57 0,2.85 0.234,4.79 1.797,6.42 0.957,1.8 2.969,2.41 5.078,2.27 1.934,0 3.809,-0.61 4.707,-2.11 1.641,-1.49 2.148,-3.44 2.148,-5.97 v -0.61"
         style="fill:#2e2d2d;fill-opacity:1;fill-rule:nonzero;stroke:none"
         id="path340" /><path
         d="m 302.914,1134.94 h 9.473 l -14.922,-43.62 h -8.438 l -14.785,43.62 h 9.766 l 9.492,-33.17 9.414,33.17"
         style="fill:#2e2d2d;fill-opacity:1;fill-rule:nonzero;stroke:none"
         id="path342" /><path
         d="m 322.348,1115.68 c -1.27,-1.36 -2.168,-2.98 -2.403,-5.08 h 14.59 c 0,2.24 -0.976,4.04 -2.324,5.08 -1.055,1.34 -2.93,1.79 -4.941,1.79 -2.09,0 -3.731,-0.45 -4.922,-1.79 m 12.617,7.16 c 2.168,-0.88 4.258,-2.38 5.469,-4.63 1.386,-1.77 2.226,-3.89 2.461,-6.72 0.371,-1.63 0.585,-3.74 0.585,-6.26 h -23.535 c 0,-3.46 1.133,-5.83 3.379,-6.89 1.192,-0.91 2.832,-1.04 4.473,-1.04 1.953,0 3.574,0.13 4.863,1.34 l 1.641,2.09 h 8.594 c -0.235,-1.79 -1.211,-3.87 -3.008,-5.82 -2.969,-3.14 -7.071,-4.63 -12.227,-4.63 -4.336,0 -8.066,1.18 -11.445,3.87 -2.988,2.71 -4.863,7.03 -4.863,13.03 0,5.52 1.523,9.99 4.355,12.83 3.066,3.14 6.856,4.48 11.563,4.48 2.988,0 5.546,-0.6 7.695,-1.65"
         style="fill:#2e2d2d;fill-opacity:1;fill-rule:nonzero;stroke:none"
         id="path344" /><path
         d="m 366.938,1112.08 c -0.059,1.05 -0.528,2.24 -1.192,3.13 -0.801,1.38 -2.383,1.96 -4.414,1.96 -2.773,0 -4.766,-1.34 -5.801,-4.04 -0.625,-1.64 -0.918,-3.59 -0.918,-5.95 0,-2.57 0.293,-4.51 0.918,-6 1.035,-2.54 2.832,-3.88 5.606,-3.88 2.148,0 3.496,0.6 4.297,1.64 0.703,1.03 1.132,2.24 1.445,4.2 h 8.73 c -0.214,-2.7 -1.054,-5.1 -2.773,-7.33 -2.832,-3.75 -6.699,-5.53 -11.699,-5.53 -5.254,0 -9.141,1.49 -11.602,4.63 -2.461,2.99 -3.887,7.02 -3.887,11.79 0,5.68 1.504,10.03 4.258,13 2.617,3.14 6.524,4.79 11.231,4.79 4.082,0 7.363,-0.9 9.98,-2.85 2.617,-1.63 3.965,-5.05 4.492,-9.56 h -8.671"
         style="fill:#2e2d2d;fill-opacity:1;fill-rule:nonzero;stroke:none"
         id="path346" /><path
         d="m 378.09,1117.31 v 5.84 h 4.531 v 9.26 h 8.281 v -9.26 h 5.332 v -5.84 h -5.332 v -17.17 c 0,-1.2 0.235,-2.1 0.703,-2.24 0.196,-0.47 1.329,-0.6 2.676,-0.6 h 1.133 0.82 v -6.28 l -4.121,-0.13 c -3.808,0 -6.582,0.43 -8.281,2.07 -0.742,1.06 -1.211,2.54 -1.211,4.47 v 19.88 h -4.531"
         style="fill:#2e2d2d;fill-opacity:1;fill-rule:nonzero;stroke:none"
         id="path348" /><path
         d="m 421.859,1099.97 c 1.25,1.8 1.993,4.21 1.993,7.34 0,3.29 -0.743,5.82 -1.993,7.77 -1.445,1.51 -3.379,2.39 -5.839,2.39 -2.481,0 -4.415,-0.88 -5.586,-2.39 -1.289,-1.95 -1.954,-4.48 -1.954,-7.77 0,-3.13 0.665,-5.54 1.954,-7.34 1.171,-1.79 3.105,-2.67 5.586,-2.67 2.46,0 4.394,0.88 5.839,2.67 m 6.856,-4.63 c -3.047,-3.41 -7.09,-5.06 -12.695,-5.06 -5.528,0 -9.629,1.65 -12.247,5.06 -2.832,3.3 -4.257,7.33 -4.257,11.97 0,4.77 1.425,8.8 4.257,12.25 2.618,3.28 6.719,5.07 12.247,5.07 5.605,0 9.648,-1.79 12.695,-5.07 2.422,-3.45 3.808,-7.48 3.808,-12.25 0,-4.64 -1.386,-8.67 -3.808,-11.97"
         style="fill:#2e2d2d;fill-opacity:1;fill-rule:nonzero;stroke:none"
         id="path350" /><path
         d="m 456.566,1124.49 0.684,-0.14 v -8.67 h -2.305 c -3.515,0 -5.742,-0.89 -7.031,-3.3 -0.586,-1.2 -0.762,-2.99 -0.762,-5.68 v -15.38 h -8.339 v 32.41 h 7.832 v -5.67 c 1.269,2.1 2.558,3.58 3.515,4.34 1.27,1.33 3.516,2.09 6.113,2.09 h 0.293"
         style="fill:#2e2d2d;fill-opacity:1;fill-rule:nonzero;stroke:none"
         id="path352" /><path
         d="m 503.129,1092.51 h -7.188 v 14.67 h -13.359 v -14.67 h -7.168 v 33.5 h 7.168 v -13.02 h 13.359 v 13.02 h 7.188 v -33.5"
         style="fill:#2e2d2d;fill-opacity:1;fill-rule:nonzero;stroke:none"
         id="path354" /><path
         d="m 525.668,1107.18 c 0,2.07 -0.508,3.71 -1.465,4.62 -0.996,1.04 -2.09,1.47 -3.75,1.47 -1.426,0 -2.637,-0.43 -3.594,-1.63 -0.839,-1.04 -1.464,-2.53 -1.64,-4.46 z m -5,-15.25 c -1.875,0 -3.809,0.29 -5.273,0.89 -1.661,0.59 -2.852,1.48 -3.985,2.52 -1.133,1.05 -1.933,2.43 -2.461,4.06 -0.605,1.33 -0.898,3.27 -0.898,5.21 0,1.94 0.293,3.74 0.898,5.25 0.528,1.63 1.328,2.98 2.461,4.03 1.133,1.19 2.324,1.94 3.809,2.55 1.562,0.58 3.281,0.87 5.234,0.87 1.934,0 3.594,-0.29 5.215,-0.72 1.367,-0.62 2.773,-1.51 3.809,-2.57 1.132,-1.03 1.875,-2.38 2.539,-3.88 0.41,-1.49 0.683,-3.29 0.683,-5.38 v -1.62 h -17.48 c 0,-1.21 0.176,-2.27 0.449,-3.17 l 1.191,-2.07 1.641,-1.19 2.168,-0.47 c 1.445,0 2.539,0.33 3.379,0.9 0.82,0.47 1.328,1.5 1.621,2.56 h 6.582 c -0.234,-1.06 -0.82,-2.27 -1.348,-3.31 -0.527,-1.05 -1.484,-1.79 -2.461,-2.37 -0.957,-0.77 -2.246,-1.2 -3.437,-1.51 -1.27,-0.29 -2.617,-0.58 -4.336,-0.58"
         style="fill:#2e2d2d;fill-opacity:1;fill-rule:nonzero;stroke:none"
         id="path356" /><path
         d="m 552.504,1103.43 h -2.402 c -2.305,0 -4.024,-0.15 -5.137,-0.76 -1.27,-0.59 -1.934,-1.8 -1.934,-3.13 0,-1.03 0.508,-1.93 1.035,-2.4 0.899,-0.57 1.641,-0.9 2.911,-0.9 1.093,0 2.226,0.33 3.125,0.76 1.132,0.43 1.718,1.04 2.402,1.8 z m 0.078,-8.83 c -1.035,-0.73 -2.324,-1.64 -3.516,-1.93 -1.425,-0.45 -2.929,-0.74 -4.707,-0.74 -1.132,0 -2.226,0.13 -3.281,0.43 -1.133,0.31 -1.953,0.75 -2.754,1.51 l -1.816,2.09 c -0.371,0.9 -0.528,1.94 -0.528,2.98 0,2.99 1.29,5.08 3.731,6.43 2.187,1.33 5.762,2.08 10.703,2.08 h 2.09 v 1.2 l -0.156,1.21 c 0,1.19 -0.528,2.08 -1.114,2.52 -0.664,0.61 -1.796,0.89 -3.3,0.89 -1.329,0 -2.618,-0.28 -3.282,-0.89 -0.82,-0.44 -1.191,-1.33 -1.191,-2.52 h -6.563 c 0.43,4.93 4.18,7.45 11.329,7.45 0.976,0 1.875,0 2.617,-0.14 0.976,0 1.504,-0.15 2.324,-0.15 l 1.641,-0.58 1.64,-0.9 1.348,-1.22 0.976,-1.48 0.45,-1.95 0.215,-2.54 v -15.84 h -6.856 v 2.09"
         style="fill:#2e2d2d;fill-opacity:1;fill-rule:nonzero;stroke:none"
         id="path358" /><path
         d="m 580.648,1110.28 -2.246,1.52 -2.441,0.43 c -1.641,0 -2.695,-0.59 -3.594,-1.95 -0.82,-1.17 -1.035,-3.1 -1.035,-5.81 0,-5.07 1.328,-7.47 4.316,-7.47 l 2.618,0.9 2.382,2.24 z m 0.235,-14.78 c -0.957,-1.2 -2.168,-2.09 -3.281,-2.54 -1.192,-0.74 -2.461,-1.03 -3.829,-1.03 -1.64,0 -3.046,0.29 -4.238,0.89 -1.269,0.59 -2.402,1.33 -2.988,2.38 -1.055,1.19 -1.582,2.41 -2.031,4.04 -0.371,1.49 -0.586,3.29 -0.586,5.23 0,1.95 0.215,3.74 0.761,5.24 0.43,1.63 1.114,2.99 1.934,4.18 0.977,1.03 1.934,1.94 3.262,2.55 1.289,0.58 2.617,0.87 4.297,0.87 1.464,0 2.597,-0.14 3.73,-0.58 l 2.734,-1.65 v 10.93 h 7.11 v -33.5 h -6.875 v 2.99"
         style="fill:#2e2d2d;fill-opacity:1;fill-rule:nonzero;stroke:none"
         id="path360" /><path
         d="m 610.023,1107.18 c -0.312,2.07 -0.82,3.71 -1.562,4.62 -0.898,1.04 -2.266,1.47 -3.965,1.47 -1.269,0 -2.402,-0.43 -3.516,-1.63 -0.839,-1.04 -1.328,-2.53 -1.328,-4.46 z m -5.097,-15.25 c -2.071,0 -3.653,0.29 -5.274,0.89 -1.66,0.59 -3.086,1.48 -4.218,2.52 -1.036,1.05 -1.934,2.43 -2.422,4.06 -0.547,1.33 -0.84,3.27 -0.84,5.21 0,1.94 0.293,3.74 0.84,5.25 0.488,1.63 1.386,2.98 2.422,4.03 1.132,1.19 2.558,1.94 3.886,2.55 1.66,0.58 3.301,0.87 5.176,0.87 1.934,0 3.731,-0.29 5.215,-0.72 1.719,-0.62 2.832,-1.51 3.887,-2.57 1.132,-1.03 1.953,-2.38 2.48,-3.88 0.508,-1.49 0.82,-3.29 0.82,-5.38 v -1.62 h -17.421 c 0,-1.21 0.175,-2.27 0.371,-3.17 l 1.132,-2.07 1.641,-1.19 2.305,-0.47 c 1.269,0 2.402,0.33 3.144,0.9 0.899,0.47 1.563,1.5 1.856,2.56 h 6.426 c -0.274,-1.06 -0.508,-2.27 -1.25,-3.31 -0.704,-1.05 -1.504,-1.79 -2.559,-2.37 -0.898,-0.77 -2.09,-1.2 -3.34,-1.51 -1.367,-0.29 -2.773,-0.58 -4.277,-0.58"
         style="fill:#2e2d2d;fill-opacity:1;fill-rule:nonzero;stroke:none"
         id="path362" /><path
         d="m 637.27,1111.05 -1.407,0.29 h -1.64 c -1.133,0 -2.168,-0.29 -3.067,-0.74 -1.035,-0.46 -1.875,-1.21 -2.636,-2.09 v -16 h -7.071 v 24.22 h 7.012 v -3.89 c 0.82,1.48 1.934,2.7 3.066,3.43 1.289,0.75 2.403,1.04 3.809,1.04 h 0.977 l 0.957,-0.14 v -6.12"
         style="fill:#2e2d2d;fill-opacity:1;fill-rule:nonzero;stroke:none"
         id="path364" /></g></g></svg>
